<?xml version="1.0" encoding="UTF-8" standalone="no"?>
<!DOCTYPE svg PUBLIC "-//W3C//DTD SVG 1.1//EN"
 "http://www.w3.org/Graphics/SVG/1.1/DTD/svg11.dtd">
<!-- Generated by graphviz version 9.0.0 (20231118.0032)
 -->
<!-- Title: al Pages: 1 -->
<svg width="348pt" height="332pt"
 viewBox="0.00 0.00 347.75 332.00" xmlns="http://www.w3.org/2000/svg" xmlns:xlink="http://www.w3.org/1999/xlink">
<g id="graph0" class="graph" transform="scale(1 1) rotate(0) translate(4 328)">
<title>al</title>
<polygon fill="none" stroke="none" points="-4,4 -4,-328 343.75,-328 343.75,4 -4,4"/>
<!-- reinvent -->
<g id="node1" class="node">
<title>reinvent</title>
<path fill="#666666" fill-opacity="0.133333" stroke="#830051" stroke-width="2" d="M262.88,-324C262.88,-324 216.88,-324 216.88,-324 210.88,-324 204.88,-318 204.88,-312 204.88,-312 204.88,-300 204.88,-300 204.88,-294 210.88,-288 216.88,-288 216.88,-288 262.88,-288 262.88,-288 268.88,-288 274.88,-294 274.88,-300 274.88,-300 274.88,-312 274.88,-312 274.88,-318 268.88,-324 262.88,-324"/>
<text text-anchor="middle" x="239.88" y="-302.3" font-family="Consolas" font-size="11.00">reinvent</text>
</g>
<!-- smiles2molecules -->
<g id="node2" class="node">
<title>smiles2molecules</title>
<path fill="#666666" fill-opacity="0.133333" stroke="#830051" stroke-width="2" d="M244.88,-252C244.88,-252 144.88,-252 144.88,-252 138.88,-252 132.88,-246 132.88,-240 132.88,-240 132.88,-228 132.88,-228 132.88,-222 138.88,-216 144.88,-216 144.88,-216 244.88,-216 244.88,-216 250.88,-216 256.88,-222 256.88,-228 256.88,-228 256.88,-240 256.88,-240 256.88,-246 250.88,-252 244.88,-252"/>
<text text-anchor="middle" x="194.88" y="-230.3" font-family="Consolas" font-size="11.00">smiles2molecules</text>
</g>
<!-- reinvent&#45;&gt;smiles2molecules -->
<g id="edge1" class="edge">
<title>reinvent&#45;&gt;smiles2molecules</title>
<path fill="none" stroke="#3f4444" stroke-width="2" d="M228.52,-287.34C223.92,-280.18 218.49,-271.73 213.34,-263.73"/>
<polygon fill="#3f4444" stroke="#3f4444" stroke-width="2" points="216.37,-261.97 208.02,-255.45 210.48,-265.75 216.37,-261.97"/>
</g>
<!-- activelearning -->
<g id="node3" class="node">
<title>activelearning</title>
<path fill="#666666" fill-opacity="0.133333" stroke="#830051" stroke-width="2" d="M210.12,-180C210.12,-180 123.62,-180 123.62,-180 117.62,-180 111.62,-174 111.62,-168 111.62,-168 111.62,-156 111.62,-156 111.62,-150 117.62,-144 123.62,-144 123.62,-144 210.12,-144 210.12,-144 216.12,-144 222.12,-150 222.12,-156 222.12,-156 222.12,-168 222.12,-168 222.12,-174 216.12,-180 210.12,-180"/>
<text text-anchor="middle" x="166.88" y="-158.3" font-family="Consolas" font-size="11.00">activelearning</text>
</g>
<!-- smiles2molecules&#45;&gt;activelearning -->
<g id="edge2" class="edge">
<title>smiles2molecules&#45;&gt;activelearning</title>
<path fill="none" stroke="#3f4444" stroke-width="2" d="M187.81,-215.34C185.08,-208.51 181.88,-200.5 178.81,-192.83"/>
<polygon fill="#3f4444" stroke="#3f4444" stroke-width="2" points="182.12,-191.7 175.16,-183.71 175.62,-194.3 182.12,-191.7"/>
</g>
<!-- log -->
<g id="node4" class="node">
<title>log</title>
<path fill="#666666" fill-opacity="0.133333" stroke="#830051" stroke-width="2" d="M271.88,-108C271.88,-108 241.88,-108 241.88,-108 235.88,-108 229.88,-102 229.88,-96 229.88,-96 229.88,-84 229.88,-84 229.88,-78 235.88,-72 241.88,-72 241.88,-72 271.88,-72 271.88,-72 277.88,-72 283.88,-78 283.88,-84 283.88,-84 283.88,-96 283.88,-96 283.88,-102 277.88,-108 271.88,-108"/>
<text text-anchor="middle" x="256.88" y="-86.3" font-family="Consolas" font-size="11.00">log</text>
</g>
<!-- activelearning&#45;&gt;log -->
<g id="edge6" class="edge">
<title>activelearning&#45;&gt;log</title>
<path fill="none" stroke="#3f4444" stroke-width="2" d="M189.59,-143.34C199.95,-135.27 212.43,-125.57 223.81,-116.72"/>
<polygon fill="#3f4444" stroke="#3f4444" stroke-width="2" points="225.72,-119.66 231.47,-110.76 221.43,-114.14 225.72,-119.66"/>
</g>
<!-- epsilongreedy -->
<g id="node5" class="node">
<title>epsilongreedy</title>
<path fill="#666666" fill-opacity="0.133333" stroke="#830051" stroke-width="2" d="M91.75,-108C91.75,-108 12,-108 12,-108 6,-108 0,-102 0,-96 0,-96 0,-84 0,-84 0,-78 6,-72 12,-72 12,-72 91.75,-72 91.75,-72 97.75,-72 103.75,-78 103.75,-84 103.75,-84 103.75,-96 103.75,-96 103.75,-102 97.75,-108 91.75,-108"/>
<text text-anchor="middle" x="51.88" y="-86.3" font-family="Consolas" font-size="11.00">epsilongreedy</text>
</g>
<!-- activelearning&#45;&gt;epsilongreedy -->
<g id="edge7" class="edge">
<title>activelearning&#45;&gt;epsilongreedy</title>
<path fill="none" stroke="#3f4444" stroke-width="2" d="M125.62,-143.15C110.32,-134.84 93.51,-124.82 79.63,-115.79"/>
<polygon fill="#3f4444" stroke="#3f4444" stroke-width="2" points="81.98,-113.15 71.72,-110.5 78.08,-118.97 81.98,-113.15"/>
</g>
<!-- autodockgpu -->
<g id="node6" class="node">
<title>autodockgpu</title>
<path fill="#666666" fill-opacity="0.133333" stroke="#830051" stroke-width="2" d="M200,-108C200,-108 133.75,-108 133.75,-108 127.75,-108 121.75,-102 121.75,-96 121.75,-96 121.75,-84 121.75,-84 121.75,-78 127.75,-72 133.75,-72 133.75,-72 200,-72 200,-72 206,-72 212,-78 212,-84 212,-84 212,-96 212,-96 212,-102 206,-108 200,-108"/>
<text text-anchor="middle" x="166.88" y="-86.3" font-family="Consolas" font-size="11.00">autodockgpu</text>
</g>
<!-- activelearning&#45;&gt;autodockgpu -->
<g id="edge3" class="edge">
<title>activelearning&#45;&gt;autodockgpu</title>
<path fill="none" stroke="#3f4444" stroke-width="2" d="M160.92,-143.34C160.26,-136.75 160.01,-129.08 160.17,-121.67"/>
<polygon fill="#3f4444" stroke="#3f4444" stroke-width="2" points="163.65,-122.11 160.73,-111.92 156.66,-121.71 163.65,-122.11"/>
</g>
<!-- extractscores -->
<g id="node8" class="node">
<title>extractscores</title>
<path fill="#666666" fill-opacity="0.133333" stroke="#830051" stroke-width="2" d="M327.75,-36C327.75,-36 248,-36 248,-36 242,-36 236,-30 236,-24 236,-24 236,-12 236,-12 236,-6 242,0 248,0 248,0 327.75,0 327.75,0 333.75,0 339.75,-6 339.75,-12 339.75,-12 339.75,-24 339.75,-24 339.75,-30 333.75,-36 327.75,-36"/>
<text text-anchor="middle" x="287.88" y="-14.3" font-family="Consolas" font-size="11.00">extractscores</text>
</g>
<!-- log&#45;&gt;extractscores -->
<g id="edge10" class="edge">
<title>log&#45;&gt;extractscores</title>
<path fill="none" stroke="#3f4444" stroke-width="2" d="M264.7,-71.34C267.76,-64.43 271.35,-56.31 274.79,-48.56"/>
<polygon fill="#3f4444" stroke="#3f4444" stroke-width="2" points="277.87,-50.23 278.72,-39.67 271.47,-47.4 277.87,-50.23"/>
</g>
<!-- epsilongreedy&#45;&gt;activelearning -->
<g id="edge8" class="edge">
<title>epsilongreedy&#45;&gt;activelearning</title>
<path fill="none" stroke="#3f4444" stroke-width="2" d="M81.14,-108.81C94.92,-117.2 111.58,-127.34 126.53,-136.44"/>
<polygon fill="#3f4444" stroke="#3f4444" stroke-width="2" points="124.61,-139.37 134.97,-141.58 128.25,-133.39 124.61,-139.37"/>
</g>
<!-- epsilongreedy&#45;&gt;activelearning -->
<g id="edge9" class="edge">
<title>epsilongreedy&#45;&gt;activelearning</title>
<path fill="none" stroke="#3f4444" stroke-width="2" d="M93.07,-108.81C108.36,-117.12 125.18,-127.14 139.07,-136.17"/>
<polygon fill="#3f4444" stroke="#3f4444" stroke-width="2" points="136.73,-138.82 146.98,-141.47 140.62,-133 136.73,-138.82"/>
</g>
<!-- autodockgpu&#45;&gt;activelearning -->
<g id="edge5" class="edge">
<title>autodockgpu&#45;&gt;activelearning</title>
<path fill="none" stroke="#3f4444" stroke-width="2" d="M172.85,-108.9C173.5,-115.51 173.74,-123.19 173.57,-130.6"/>
<polygon fill="#3f4444" stroke="#3f4444" stroke-width="2" points="170.09,-130.13 173,-140.31 177.08,-130.54 170.09,-130.13"/>
</g>
<!-- void -->
<g id="node7" class="node">
<title>void</title>
<path fill="#666666" fill-opacity="0.133333" stroke="#830051" stroke-width="2" d="M181.88,-36C181.88,-36 151.88,-36 151.88,-36 145.88,-36 139.88,-30 139.88,-24 139.88,-24 139.88,-12 139.88,-12 139.88,-6 145.88,0 151.88,0 151.88,0 181.88,0 181.88,0 187.88,0 193.88,-6 193.88,-12 193.88,-12 193.88,-24 193.88,-24 193.88,-30 187.88,-36 181.88,-36"/>
<text text-anchor="middle" x="166.88" y="-14.3" font-family="Consolas" font-size="11.00">void</text>
</g>
<!-- autodockgpu&#45;&gt;void -->
<g id="edge4" class="edge">
<title>autodockgpu&#45;&gt;void</title>
<path fill="none" stroke="#3f4444" stroke-width="2" d="M166.88,-71.34C166.88,-64.75 166.88,-57.08 166.88,-49.67"/>
<polygon fill="#3f4444" stroke="#3f4444" stroke-width="2" points="170.38,-49.93 166.88,-39.93 163.38,-49.93 170.38,-49.93"/>
</g>
<!-- extractscores&#45;&gt;reinvent -->
<g id="edge11" class="edge">
<title>extractscores&#45;&gt;reinvent</title>
<path fill="none" stroke="#3f4444" stroke-width="2" d="M289.96,-36.64C291.07,-46.93 292.32,-60.18 292.88,-72 296.68,-152.81 291.38,-175.23 265.88,-252 263.24,-259.95 259.63,-268.22 255.95,-275.8"/>
<polygon fill="#3f4444" stroke="#3f4444" stroke-width="2" points="252.85,-274.17 251.41,-284.67 259.08,-277.36 252.85,-274.17"/>
</g>
</g>
</svg>
