<?xml version="1.0" encoding="UTF-8" standalone="no"?>
<!DOCTYPE svg PUBLIC "-//W3C//DTD SVG 1.1//EN"
 "http://www.w3.org/Graphics/SVG/1.1/DTD/svg11.dtd">
<!-- Generated by graphviz version 11.0.0 (20240519.1550)
 -->
<!-- Title: afpcs Pages: 1 -->
<svg width="284pt" height="260pt"
 viewBox="0.00 0.00 284.00 260.00" xmlns="http://www.w3.org/2000/svg" xmlns:xlink="http://www.w3.org/1999/xlink">
<g id="graph0" class="graph" transform="scale(1 1) rotate(0) translate(4 256)">
<title>afpcs</title>
<polygon fill="none" stroke="none" points="-4,4 -4,-256 280,-256 280,4 -4,4"/>
<!-- loaddata -->
<g id="node1" class="node">
<title>loaddata</title>
<path fill="#666666" fill-opacity="0.133333" stroke="#830051" stroke-width="2" d="M161,-252C161,-252 115,-252 115,-252 109,-252 103,-246 103,-240 103,-240 103,-228 103,-228 103,-222 109,-216 115,-216 115,-216 161,-216 161,-216 167,-216 173,-222 173,-228 173,-228 173,-240 173,-240 173,-246 167,-252 161,-252"/>
<text text-anchor="middle" x="138" y="-230.3" font-family="Consolas" font-size="11.00">loaddata</text>
</g>
<!-- reactioncontrol -->
<g id="node2" class="node">
<title>reactioncontrol</title>
<path fill="#666666" fill-opacity="0.133333" stroke="#830051" stroke-width="2" d="M184.62,-180C184.62,-180 91.38,-180 91.38,-180 85.38,-180 79.38,-174 79.38,-168 79.38,-168 79.38,-156 79.38,-156 79.38,-150 85.38,-144 91.38,-144 91.38,-144 184.62,-144 184.62,-144 190.62,-144 196.62,-150 196.62,-156 196.62,-156 196.62,-168 196.62,-168 196.62,-174 190.62,-180 184.62,-180"/>
<text text-anchor="middle" x="138" y="-158.3" font-family="Consolas" font-size="11.00">reactioncontrol</text>
</g>
<!-- loaddata&#45;&gt;reactioncontrol -->
<g id="edge1" class="edge">
<title>loaddata&#45;&gt;reactioncontrol</title>
<path fill="none" stroke="#3f4444" stroke-width="2" d="M138,-215.34C138,-208.75 138,-201.08 138,-193.67"/>
<polygon fill="#3f4444" stroke="#3f4444" stroke-width="2" points="141.5,-193.93 138,-183.93 134.5,-193.93 141.5,-193.93"/>
</g>
<!-- uff -->
<g id="node3" class="node">
<title>uff</title>
<path fill="#666666" fill-opacity="0.133333" stroke="#830051" stroke-width="2" d="M42,-108C42,-108 12,-108 12,-108 6,-108 0,-102 0,-96 0,-96 0,-84 0,-84 0,-78 6,-72 12,-72 12,-72 42,-72 42,-72 48,-72 54,-78 54,-84 54,-84 54,-96 54,-96 54,-102 48,-108 42,-108"/>
<text text-anchor="middle" x="27" y="-86.3" font-family="Consolas" font-size="11.00">uff</text>
</g>
<!-- reactioncontrol&#45;&gt;uff -->
<g id="edge2" class="edge">
<title>reactioncontrol&#45;&gt;uff</title>
<path fill="none" stroke="#3f4444" stroke-width="2" d="M109.7,-143.15C96.29,-134.7 80.07,-124.47 65.55,-115.31"/>
<polygon fill="#3f4444" stroke="#3f4444" stroke-width="2" points="67.75,-112.56 57.42,-110.18 64.01,-118.48 67.75,-112.56"/>
</g>
<!-- xtb -->
<g id="node5" class="node">
<title>xtb</title>
<path fill="#666666" fill-opacity="0.133333" stroke="#830051" stroke-width="2" d="M264,-108C264,-108 234,-108 234,-108 228,-108 222,-102 222,-96 222,-96 222,-84 222,-84 222,-78 228,-72 234,-72 234,-72 264,-72 264,-72 270,-72 276,-78 276,-84 276,-84 276,-96 276,-96 276,-102 270,-108 264,-108"/>
<text text-anchor="middle" x="249" y="-86.3" font-family="Consolas" font-size="11.00">xtb</text>
</g>
<!-- reactioncontrol&#45;&gt;xtb -->
<g id="edge5" class="edge">
<title>reactioncontrol&#45;&gt;xtb</title>
<path fill="none" stroke="#3f4444" stroke-width="2" d="M166.3,-143.15C179.71,-134.7 195.93,-124.47 210.45,-115.31"/>
<polygon fill="#3f4444" stroke="#3f4444" stroke-width="2" points="211.99,-118.48 218.58,-110.18 208.25,-112.56 211.99,-118.48"/>
</g>
<!-- return -->
<g id="node7" class="node">
<title>return</title>
<path fill="#666666" fill-opacity="0.133333" stroke="#830051" stroke-width="2" d="M154.25,-108C154.25,-108 121.75,-108 121.75,-108 115.75,-108 109.75,-102 109.75,-96 109.75,-96 109.75,-84 109.75,-84 109.75,-78 115.75,-72 121.75,-72 121.75,-72 154.25,-72 154.25,-72 160.25,-72 166.25,-78 166.25,-84 166.25,-84 166.25,-96 166.25,-96 166.25,-102 160.25,-108 154.25,-108"/>
<text text-anchor="middle" x="138" y="-86.3" font-family="Consolas" font-size="11.00">return</text>
</g>
<!-- reactioncontrol&#45;&gt;return -->
<g id="edge8" class="edge">
<title>reactioncontrol&#45;&gt;return</title>
<path fill="none" stroke="#3f4444" stroke-width="2" d="M138,-143.34C138,-136.75 138,-129.08 138,-121.67"/>
<polygon fill="#3f4444" stroke="#3f4444" stroke-width="2" points="141.5,-121.93 138,-111.93 134.5,-121.93 141.5,-121.93"/>
</g>
<!-- crest -->
<g id="node6" class="node">
<title>crest</title>
<path fill="#666666" fill-opacity="0.133333" stroke="#830051" stroke-width="2" d="M69,-36C69,-36 39,-36 39,-36 33,-36 27,-30 27,-24 27,-24 27,-12 27,-12 27,-6 33,0 39,0 39,0 69,0 69,0 75,0 81,-6 81,-12 81,-12 81,-24 81,-24 81,-30 75,-36 69,-36"/>
<text text-anchor="middle" x="54" y="-14.3" font-family="Consolas" font-size="11.00">crest</text>
</g>
<!-- uff&#45;&gt;crest -->
<g id="edge3" class="edge">
<title>uff&#45;&gt;crest</title>
<path fill="none" stroke="#3f4444" stroke-width="2" d="M33.81,-71.34C36.45,-64.51 39.54,-56.5 42.49,-48.83"/>
<polygon fill="#3f4444" stroke="#3f4444" stroke-width="2" points="45.67,-50.32 46.01,-39.73 39.14,-47.8 45.67,-50.32"/>
</g>
<!-- g16 -->
<g id="node4" class="node">
<title>g16</title>
<path fill="#666666" fill-opacity="0.133333" stroke="#830051" stroke-width="2" d="M236,-36C236,-36 206,-36 206,-36 200,-36 194,-30 194,-24 194,-24 194,-12 194,-12 194,-6 200,0 206,0 206,0 236,0 236,0 242,0 248,-6 248,-12 248,-12 248,-24 248,-24 248,-30 242,-36 236,-36"/>
<text text-anchor="middle" x="221" y="-14.3" font-family="Consolas" font-size="11.00">g16</text>
</g>
<!-- g16&#45;&gt;reactioncontrol -->
<g id="edge7" class="edge">
<title>g16&#45;&gt;reactioncontrol</title>
<path fill="none" stroke="#3f4444" stroke-width="2" d="M212.68,-36.77C203.94,-55.01 189.48,-84.03 175,-108 170.03,-116.23 164.25,-124.88 158.75,-132.76"/>
<polygon fill="#3f4444" stroke="#3f4444" stroke-width="2" points="155.99,-130.6 153.04,-140.78 161.69,-134.66 155.99,-130.6"/>
</g>
<!-- xtb&#45;&gt;g16 -->
<g id="edge6" class="edge">
<title>xtb&#45;&gt;g16</title>
<path fill="none" stroke="#3f4444" stroke-width="2" d="M241.93,-71.34C239.2,-64.51 236,-56.5 232.93,-48.83"/>
<polygon fill="#3f4444" stroke="#3f4444" stroke-width="2" points="236.25,-47.7 229.28,-39.71 229.75,-50.3 236.25,-47.7"/>
</g>
<!-- crest&#45;&gt;reactioncontrol -->
<g id="edge4" class="edge">
<title>crest&#45;&gt;reactioncontrol</title>
<path fill="none" stroke="#3f4444" stroke-width="2" d="M62.56,-36.75C71.54,-54.97 86.35,-83.98 101,-108 106,-116.2 111.8,-124.85 117.3,-132.73"/>
<polygon fill="#3f4444" stroke="#3f4444" stroke-width="2" points="114.36,-134.63 123.01,-140.75 120.06,-130.57 114.36,-134.63"/>
</g>
</g>
</svg>
