<?xml version="1.0" encoding="UTF-8" standalone="no"?>
<!DOCTYPE svg PUBLIC "-//W3C//DTD SVG 20010904//EN"
              "http://www.w3.org/TR/2001/REC-SVG-20010904/DTD/svg10.dtd">

<svg xmlns="http://www.w3.org/2000/svg"
     width="38.0889in" height="13.1in"
     viewBox="0 0 3428 1179">
  <path id="Selection #3"
        fill="none" stroke="black" stroke-width="1"
        d="M 555.00,393.00
           C 555.00,393.00 555.00,491.00 555.00,491.00
             554.92,539.27 519.27,574.92 471.00,575.00
             471.00,575.00 309.00,575.00 309.00,575.00
             309.00,575.00 172.00,575.00 172.00,575.00
             123.67,574.92 88.08,539.30 88.00,491.00
             88.00,491.00 88.00,194.00 88.00,194.00
             88.08,145.70 123.67,110.08 172.00,110.00
             172.00,110.00 471.00,110.00 471.00,110.00
             519.31,110.08 554.92,145.69 555.00,194.00
             555.00,194.00 555.00,305.00 555.00,305.00
             563.03,305.00 580.93,303.03 586.79,308.39
             588.47,309.93 589.67,311.83 590.35,314.00
             591.50,317.66 591.00,337.72 591.00,343.00
             591.00,343.00 662.00,343.00 662.00,343.00
             667.36,343.00 681.87,341.39 684.83,346.23
             686.22,348.50 686.00,352.37 686.00,355.00
             686.00,355.00 686.00,518.00 686.00,518.00
             686.00,518.00 733.00,518.00 733.00,518.00
             733.00,518.00 733.00,507.00 733.00,507.00
             733.00,507.00 768.00,523.00 768.00,523.00
             768.00,523.00 768.00,494.00 768.00,494.00
             768.08,488.63 769.03,484.46 774.09,481.57
             778.75,478.91 795.85,480.00 802.00,480.00
             802.00,461.27 801.15,448.07 808.06,430.00
             820.43,397.67 852.22,379.05 886.00,379.00
             886.00,379.00 1184.00,379.00 1184.00,379.00
             1217.57,379.05 1248.67,397.21 1261.55,429.00
             1268.33,445.75 1268.00,459.48 1268.00,477.00
             1275.40,477.00 1293.37,475.44 1298.90,479.65
             1301.03,481.28 1302.54,483.44 1303.35,486.00
             1304.51,489.68 1304.00,510.61 1304.00,516.00
             1304.00,516.00 1371.00,516.00 1371.00,516.00
             1371.00,516.00 1371.00,383.00 1371.00,383.00
             1371.00,383.00 1371.00,354.00 1371.00,354.00
             1371.01,351.26 1370.69,347.62 1372.60,345.43
             1375.04,342.62 1379.62,343.01 1383.00,343.00
             1383.00,343.00 1414.00,343.00 1414.00,343.00
             1414.00,343.00 1414.00,332.00 1414.00,332.00
             1414.00,332.00 1449.00,349.00 1449.00,349.00
             1449.00,349.00 1449.00,320.00 1449.00,320.00
             1449.08,314.48 1450.00,310.19 1455.04,307.01
             1460.19,303.75 1478.19,305.00 1485.00,305.00
             1485.00,305.00 1485.00,236.00 1485.00,236.00
             1485.00,201.67 1480.73,167.97 1507.01,141.00
             1511.72,136.17 1514.37,133.47 1520.00,129.67
             1527.16,124.84 1532.77,121.98 1541.00,119.34
             1549.40,116.65 1560.18,115.01 1569.00,115.00
             1569.00,115.00 1868.00,115.00 1868.00,115.00
             1915.54,115.07 1951.77,150.18 1952.00,198.00
             1952.00,198.00 1952.00,303.00 1952.00,303.00
             1958.08,303.00 1975.52,301.89 1979.98,304.74
             1982.23,306.17 1984.30,308.51 1985.26,311.00
             1986.59,314.46 1986.00,335.76 1986.00,341.00
             1986.00,341.00 2051.00,341.00 2051.00,341.00
             2061.32,341.02 2063.98,342.25 2064.00,353.00
             2064.00,353.00 2064.00,605.00 2064.00,605.00
             2064.00,605.00 2094.00,605.00 2094.00,605.00
             2094.00,605.00 2094.00,594.00 2094.00,594.00
             2100.89,595.29 2121.11,606.08 2128.00,610.00
             2128.00,610.00 2128.00,580.00 2128.00,580.00
             2128.07,575.09 2128.64,570.96 2133.10,568.01
             2137.93,564.81 2154.60,566.00 2161.00,566.00
             2161.00,566.00 2161.00,500.00 2161.00,500.00
             2161.00,465.67 2156.73,431.97 2183.01,405.00
             2187.72,400.17 2190.37,397.47 2196.00,393.67
             2202.72,389.14 2208.29,386.21 2216.00,383.67
             2224.88,380.74 2235.65,379.01 2245.00,379.00
             2245.00,379.00 2544.00,379.00 2544.00,379.00
             2581.11,379.06 2613.53,400.80 2624.28,437.00
             2629.10,453.22 2628.00,470.29 2628.00,487.00
             2634.08,487.00 2651.52,485.89 2655.98,488.74
             2658.23,490.17 2660.30,492.51 2661.26,495.00
             2662.59,498.46 2662.00,519.76 2662.00,525.00
             2662.00,525.00 2747.00,525.00 2747.00,525.00
             2747.00,525.00 2747.00,385.00 2747.00,385.00
             2747.00,385.00 2747.00,354.00 2747.00,354.00
             2747.02,351.21 2746.82,347.68 2748.74,345.43
             2751.15,342.59 2755.63,343.01 2759.00,343.00
             2759.00,343.00 2809.00,343.00 2809.00,343.00
             2809.00,343.00 2809.00,332.00 2809.00,332.00
             2809.00,332.00 2844.00,348.00 2844.00,348.00
             2844.00,348.00 2844.00,318.00 2844.00,318.00
             2844.07,313.15 2844.64,309.64 2849.04,306.74
             2853.26,303.96 2868.36,305.00 2874.00,305.00
             2874.00,305.00 2874.00,223.00 2874.00,223.00
             2874.00,199.46 2872.44,180.62 2884.31,159.00
             2887.94,152.38 2891.70,147.36 2897.00,142.00
             2924.84,113.87 2951.96,117.00 2988.00,117.00
             2988.00,117.00 3113.00,117.00 3113.00,117.00
             3113.00,117.00 3256.00,117.00 3256.00,117.00
             3289.39,117.05 3319.74,134.74 3333.13,166.00
             3337.52,176.24 3339.98,189.87 3340.00,201.00
             3340.00,201.00 3340.00,498.00 3340.00,498.00
             3339.92,546.19 3304.19,581.92 3256.00,582.00
             3256.00,582.00 2958.00,582.00 2958.00,582.00
             2910.44,581.93 2874.23,546.81 2874.00,499.00
             2874.00,499.00 2874.00,394.00 2874.00,394.00
             2868.36,394.00 2853.26,395.04 2849.04,392.26
             2844.64,389.36 2844.07,385.85 2844.00,381.00
             2844.00,381.00 2844.00,351.00 2844.00,351.00
             2844.00,351.00 2809.00,367.00 2809.00,367.00
             2809.00,367.00 2809.00,356.00 2809.00,356.00
             2809.00,356.00 2760.00,356.00 2760.00,356.00
             2760.00,356.00 2760.00,495.00 2760.00,495.00
             2760.00,495.00 2760.00,526.00 2760.00,526.00
             2759.96,529.23 2759.95,533.03 2757.49,535.49
             2754.66,538.32 2749.70,537.99 2746.00,538.00
             2746.00,538.00 2662.00,538.00 2662.00,538.00
             2662.00,543.14 2662.58,563.56 2661.26,567.00
             2660.30,569.49 2658.23,571.83 2655.98,573.26
             2651.52,576.11 2634.08,575.00 2628.00,575.00
             2628.00,575.00 2628.00,648.00 2628.00,648.00
             2634.08,648.00 2651.52,646.89 2655.98,649.74
             2658.23,651.17 2660.30,653.51 2661.26,656.00
             2662.59,659.46 2662.00,680.76 2662.00,686.00
             2662.00,686.00 2740.00,686.00 2740.00,686.00
             2745.11,686.00 2760.05,684.65 2763.26,688.43
             2765.31,690.84 2765.00,695.01 2765.00,698.00
             2765.00,698.00 2765.00,867.00 2765.00,867.00
             2765.00,867.00 2765.00,972.00 2765.00,972.00
             2765.00,972.00 2765.00,995.00 2765.00,995.00
             2764.95,997.73 2764.97,1000.47 2762.69,1002.40
             2760.44,1004.29 2756.77,1003.99 2754.00,1004.00
             2754.00,1004.00 2636.00,1004.00 2636.00,1004.00
             2636.00,1004.00 2636.00,1016.00 2636.00,1016.00
             2636.00,1016.00 2601.00,999.00 2601.00,999.00
             2601.00,999.00 2601.00,1125.00 2601.00,1125.00
             2601.00,1125.00 806.00,1125.00 806.00,1125.00
             806.00,1125.00 806.00,1003.00 806.00,1003.00
             806.00,1003.00 706.00,1003.00 706.00,1003.00
             706.00,1003.00 684.00,1003.00 684.00,1003.00
             681.12,1002.94 678.64,1002.97 676.51,1000.69
             673.73,997.70 674.01,992.80 674.00,989.00
             674.00,989.00 674.00,768.00 674.00,768.00
             674.00,768.00 674.00,724.00 674.00,724.00
             674.00,719.55 673.38,708.64 675.31,705.11
             677.81,700.54 682.53,701.01 687.00,701.00
             687.00,701.00 731.00,701.00 731.00,701.00
             731.00,701.00 731.00,690.00 731.00,690.00
             731.00,690.00 765.00,706.00 765.00,706.00
             765.00,706.00 765.00,678.00 765.00,678.00
             765.07,672.89 765.74,668.97 770.10,665.65
             775.66,661.41 794.49,663.00 802.00,663.00
             802.00,663.00 802.00,568.00 802.00,568.00
             795.85,568.00 778.75,569.09 774.09,566.43
             768.13,563.03 768.01,558.05 768.00,552.00
             768.00,552.00 768.00,526.00 768.00,526.00
             768.00,526.00 733.00,542.00 733.00,542.00
             733.00,542.00 733.00,531.00 733.00,531.00
             733.00,531.00 694.00,531.00 694.00,531.00
             690.15,531.00 680.13,531.59 677.15,529.83
             673.53,527.69 674.01,523.62 674.00,520.00
             674.00,520.00 674.00,356.00 674.00,356.00
             674.00,356.00 591.00,356.00 591.00,356.00
             591.00,361.18 591.50,380.36 590.35,384.00
             589.67,386.17 588.47,388.07 586.79,389.61
             580.93,394.97 563.03,393.00 555.00,393.00 Z
           M 1449.00,350.00
           C 1449.00,350.00 1414.00,367.00 1414.00,367.00
             1414.00,367.00 1414.00,356.00 1414.00,356.00
             1414.00,356.00 1383.00,356.00 1383.00,356.00
             1383.00,356.00 1383.00,488.00 1383.00,488.00
             1383.00,488.00 1383.00,516.00 1383.00,516.00
             1382.99,518.96 1383.27,522.35 1381.40,524.85
             1378.78,528.36 1374.89,527.99 1371.00,528.00
             1371.00,528.00 1304.00,528.00 1304.00,528.00
             1304.00,533.13 1304.47,552.42 1303.35,556.00
             1302.30,559.33 1299.95,562.18 1296.98,563.99
             1291.69,567.24 1274.83,566.00 1268.00,566.00
             1268.00,566.00 1268.00,759.00 1268.00,759.00
             1267.92,807.45 1231.45,843.92 1183.00,844.00
             1183.00,844.00 887.00,844.00 887.00,844.00
             853.17,843.95 821.40,824.96 808.45,793.00
             802.68,778.75 802.00,767.08 802.00,752.00
             795.66,752.00 777.86,753.01 773.00,750.55
             769.58,748.81 766.80,745.68 765.65,742.00
             765.65,742.00 765.00,709.00 765.00,709.00
             765.00,709.00 731.00,725.00 731.00,725.00
             731.00,725.00 731.00,714.00 731.00,714.00
             731.00,714.00 687.00,714.00 687.00,714.00
             687.00,714.00 687.00,990.00 687.00,990.00
             687.00,990.00 806.00,990.00 806.00,990.00
             806.00,990.00 806.00,884.00 806.00,884.00
             806.00,884.00 2601.00,884.00 2601.00,884.00
             2601.00,884.00 2601.00,997.00 2601.00,997.00
             2601.00,997.00 2636.00,980.00 2636.00,980.00
             2636.00,980.00 2636.00,992.00 2636.00,992.00
             2636.00,992.00 2753.00,992.00 2753.00,992.00
             2753.00,992.00 2753.00,699.00 2753.00,699.00
             2753.00,699.00 2662.00,699.00 2662.00,699.00
             2662.00,704.05 2662.57,723.57 2661.26,727.00
             2660.09,730.05 2656.91,733.36 2654.00,734.83
             2650.11,736.78 2633.31,736.00 2628.00,736.00
             2628.00,752.98 2629.07,769.54 2623.98,786.00
             2612.86,821.89 2579.98,843.94 2543.00,844.00
             2543.00,844.00 2246.00,844.00 2246.00,844.00
             2236.65,843.99 2225.88,842.26 2217.00,839.33
             2208.95,836.68 2202.96,833.47 2196.00,828.65
             2190.91,825.13 2187.31,821.41 2183.01,817.00
             2156.58,789.87 2161.00,755.53 2161.00,721.00
             2161.00,721.00 2161.00,655.00 2161.00,655.00
             2154.52,655.00 2139.09,656.18 2134.04,652.99
             2129.00,649.81 2128.08,645.52 2128.00,640.00
             2128.00,640.00 2128.00,612.00 2128.00,612.00
             2128.00,612.00 2094.00,629.00 2094.00,629.00
             2094.00,629.00 2094.00,617.00 2094.00,617.00
             2094.00,617.00 2063.00,617.00 2063.00,617.00
             2060.08,616.99 2056.67,617.29 2054.23,615.40
             2050.64,612.63 2051.01,608.04 2051.00,604.00
             2051.00,604.00 2051.00,354.00 2051.00,354.00
             2051.00,354.00 1986.00,354.00 1986.00,354.00
             1986.00,359.05 1986.57,378.57 1985.26,382.00
             1984.09,385.05 1980.91,388.36 1978.00,389.83
             1974.11,391.78 1957.31,391.00 1952.00,391.00
             1952.00,391.00 1952.00,457.00 1952.00,457.00
             1952.00,489.17 1955.86,522.38 1933.68,549.00
             1929.44,554.08 1922.40,560.70 1917.00,564.57
             1910.25,569.42 1903.89,572.73 1896.00,575.33
             1887.12,578.26 1876.35,579.99 1867.00,580.00
             1867.00,580.00 1570.00,580.00 1570.00,580.00
             1522.26,579.93 1485.23,543.99 1485.00,496.00
             1485.00,496.00 1485.00,393.00 1485.00,393.00
             1478.77,393.00 1461.82,393.99 1457.00,391.55
             1453.58,389.81 1450.80,386.68 1449.65,383.00
             1449.65,383.00 1449.00,350.00 1449.00,350.00 Z" />
</svg>
